<svg width="81" height="29" viewBox="0 0 81 29" fill="none" xmlns="http://www.w3.org/2000/svg">
<rect width="81" height="29" rx="3.36145" fill="#035063"/>
<path d="M28.2356 19.3615H26.7156L25.7716 16.9935H20.4596L19.5156 19.3615H17.9956L22.2836 8.68945H23.9316L28.2356 19.3615ZM25.3716 15.8094L23.1156 10.0654L20.8436 15.8094H25.3716ZM36.3828 19.3615H34.8468L32.0628 15.8895L30.7828 17.1535V19.3615H29.5828V11.6335H30.7828V15.7455L34.8468 11.6335H36.3668L32.9428 15.1375L36.3828 19.3615ZM43.9296 21.3295V19.3615H37.8016V11.6335H39.0016V18.3055H43.0336V11.6335H44.2336V18.3055H45.1296V21.3295H43.9296ZM47.9223 19.3615H46.7703V11.6335H47.9703V17.5375L52.0183 11.6335H53.2023V19.3615H52.0023V13.3454L47.9223 19.3615ZM56.7505 19.3615H55.3425L57.4065 16.3214C56.8198 16.2468 56.3398 16.0014 55.9665 15.5854C55.6038 15.1695 55.4225 14.6415 55.4225 14.0015C55.4225 13.3188 55.6411 12.7534 56.0785 12.3054C56.5158 11.8575 57.1131 11.6335 57.8705 11.6335H61.9505V19.3615H60.7505V16.3695H58.6385L56.7505 19.3615ZM57.9985 15.3134H60.7505V12.6894H57.9985C57.5825 12.6894 57.2518 12.8121 57.0065 13.0574C56.7718 13.2921 56.6545 13.6068 56.6545 14.0015C56.6545 14.3961 56.7718 14.7161 57.0065 14.9615C57.2411 15.1961 57.5718 15.3134 57.9985 15.3134Z" fill="white"/>
</svg>
